# xmcd
#
# Track frame offsets:
#	183
#	43458
#	82233
#	98133
#	126183
#	194133
#	237933
#	285183
#
# Disc length: 4356 seconds
#
# Revision: 2
# Processed by: cddbd v1.5.2PL0 Copyright (c) Steve Scherf et al.
# Submitted via: EasyCDDAExtractor 16.0.6.1
#
DISCID=75110208
DTITLE=Άνευ ερμηνευτού - The 9 Symphonies 1
DYEAR=1992
DGENRE=Κλασική
TTITLE0=S. 1 in C major, op.21-I. Adagio molto-Allegro con brio
TTITLE1=S. 1 in C major, op.21-II. Andante cantabile con moto
TTITLE2=S. 1 in C major, op.21-III. Menuetto: Allegro molto e vivace
TTITLE3=S. 1 in C major, op.21-IV. Finale: Adagio-All. molto e vivace
TTITLE4=S. 7 in A major, op.92-I. Poco sostenuto-Vivace
TTITLE5=S. 7 in A major, op.92-II. Allegretto
TTITLE6=S. 7 in A major, op.92-III. Presto-Assai meno presto
TTITLE7=S. 7 in A major, op.92-IV. Allegro con brio
EXTD=
EXTT0=
EXTT1=
EXTT2=
EXTT3=
EXTT4=
EXTT5=
EXTT6=
EXTT7=
PLAYORDER=
